<svg width="41" height="41" viewBox="0 0 41 41" fill="none" xmlns="http://www.w3.org/2000/svg">
<g id="Group">
<g id="Group_2">
<path id="Vector" d="M35.2493 7.76059L35.2492 7.76043C33.5194 4.689 31.3963 2.89537 28.9737 1.86411C26.5432 0.829478 23.7933 0.554352 20.7971 0.554352C15.781 0.554352 10.7148 3.57943 6.89195 8.02066C3.07126 12.4593 0.529186 18.2717 0.529297 23.7773C0.529297 26.781 1.41053 28.8327 2.83251 30.4827C4.26606 32.1461 6.25566 33.4109 8.50853 34.8241L35.2493 7.76059ZM35.2493 7.76059C35.763 8.67104 36.3974 9.33466 37.0358 9.92863C37.2121 10.0927 37.3869 10.2499 37.5591 10.4049C38.018 10.8178 38.4588 11.2144 38.8613 11.6789C39.4063 12.3077 39.8686 13.0497 40.1566 14.0833C40.4455 15.1205 40.562 16.4632 40.3965 18.2959L40.3965 18.2959M35.2493 7.76059L40.3965 18.2959M40.3965 18.2959C39.9018 23.7933 37.518 29.3395 33.9915 33.5083M40.3965 18.2959L33.9915 33.5083M33.9915 33.5083C30.4641 37.6781 25.8159 40.4459 20.7973 40.4459M33.9915 33.5083L20.7973 40.4459M20.7973 40.4459C18.553 40.4459 16.4131 39.6293 14.3611 38.5114M20.7973 40.4459L14.3611 38.5114M14.3611 38.5114C13.0099 37.7753 11.7172 36.9213 10.4614 36.0916M14.3611 38.5114L10.4614 36.0916M10.4614 36.0916C9.80142 35.6555 9.15161 35.2262 8.50883 34.8243L10.4614 36.0916Z" stroke="#333333" stroke-width="0.5"/>
<path id="Vector_2" d="M10.3024 36.3425L10.3023 36.3424L10.2696 36.3208C9.61414 35.8881 8.99098 35.4767 8.36958 35.088C6.15225 33.6972 4.12767 32.4248 2.64999 30.7187C1.18368 29.0258 0.25 26.8968 0.25 23.7773C0.25 18.4753 2.65138 12.5024 6.68849 7.81233L6.49902 7.64923L6.68849 7.81233C10.8409 2.98818 15.9886 0.25 20.7971 0.25C24.3773 0.25 26.9234 0.664782 29.0751 1.58048C31.7436 2.71635 33.8412 4.67887 35.4869 7.60106L35.487 7.6012C36.1106 8.7068 36.9417 9.45467 37.7155 10.151L37.7264 10.1608L37.8937 9.975L37.7265 10.1608C38.5891 10.937 39.4283 11.6952 40.0055 12.8923C40.5814 14.0868 40.9071 15.7443 40.674 18.3257L40.674 18.3257C40.1794 23.8219 37.8181 29.4333 34.1964 33.7146C30.3456 38.2666 25.5843 40.75 20.7971 40.75C16.9881 40.75 13.4748 38.4381 10.3024 36.3425ZM8.38212 34.9838L8.38241 34.984C9.01274 35.3782 9.64286 35.7944 10.3134 36.2374L10.3159 36.239L10.4537 36.0304L10.3159 36.239L10.3516 36.2626C13.4214 38.2902 16.9808 40.6413 20.7971 40.6413C26.0758 40.6413 30.7978 37.6748 34.3078 33.4194C37.8185 29.1632 40.1415 23.5902 40.6165 18.3108C40.8404 15.8327 40.5533 14.2014 39.9756 12.9889C39.4018 11.7844 38.5519 11.0199 37.717 10.2688L37.7055 10.2585C36.8897 9.52452 36.0771 8.79111 35.447 7.67446C33.743 4.64886 31.6539 2.81163 29.1904 1.73639C26.7346 0.664563 23.926 0.358475 20.7971 0.358475C15.7819 0.358475 10.6591 3.38925 6.8009 7.80595C2.93996 12.2258 0.308143 18.0742 0.308143 23.777C0.308143 26.8363 1.20582 28.9469 2.68079 30.6443C4.13869 32.322 6.15449 33.5865 8.36073 34.9704L8.38212 34.9838Z" fill="black" stroke="#333333" stroke-width="0.5"/>
</g>
<g id="Group_3">
<path id="Vector_3" d="M31.6011 28.2198C31.6011 31.8072 28.8377 34.7067 25.4731 34.7067C22.1083 34.7067 19.3396 31.8069 19.3396 28.2198C19.3396 24.639 22.1081 21.7391 25.4731 21.7391C28.8378 21.7391 31.6011 24.6387 31.6011 28.2198Z" stroke="#333333" stroke-width="0.5"/>
<path id="Vector_4" d="M19.1183 28.2199C19.1183 24.5504 21.9569 21.5432 25.473 21.5432C28.9865 21.5432 31.8221 24.5506 31.8219 28.2199H19.1183ZM19.1183 28.2199C19.1183 31.8926 21.9567 34.9024 25.473 34.9024M19.1183 28.2199L25.473 34.9024M25.473 34.9024C28.9865 34.9024 31.8219 31.8921 31.8219 28.2199L25.473 34.9024ZM25.473 35.0111C21.9501 35.0111 19.0604 31.9775 19.0604 28.2199C19.0604 24.4657 21.9499 21.4348 25.473 21.4348C28.9928 21.4348 31.88 24.4657 31.88 28.2199C31.88 31.9777 28.9926 35.0111 25.473 35.0111Z" fill="black" stroke="#333333" stroke-width="0.5"/>
</g>
<g id="Group_4">
<path id="Vector_5" d="M22.5559 14.393C22.5559 17.98 19.7872 20.8799 16.4224 20.8799C13.0575 20.8799 10.2888 17.98 10.2888 14.393C10.2888 10.8119 13.0574 7.91196 16.4224 7.91196C19.7873 7.91196 22.5559 10.8121 22.5559 14.393Z" stroke="#333333" stroke-width="0.5"/>
<path id="Vector_6" d="M16.4224 21.1842C12.8995 21.1842 10.0098 18.1506 10.0098 14.393C10.0098 10.6388 12.8993 7.60783 16.4224 7.60783C19.9455 7.60783 22.835 10.6388 22.835 14.393C22.835 18.1506 19.9453 21.1842 16.4224 21.1842ZM16.4224 7.7163C12.9062 7.7163 10.0677 10.7235 10.0677 14.393C10.0677 18.0657 12.906 21.0755 16.4224 21.0755C19.9387 21.0755 22.7768 18.0654 22.7768 14.393C22.7768 10.7235 19.9385 7.7163 16.4224 7.7163Z" fill="black" stroke="#333333" stroke-width="0.5"/>
</g>
<g id="Group_5">
<path id="Vector_7" d="M30.1873 8.48399V8.48371C30.1873 8.44327 30.2018 8.4118 30.219 8.39262C30.2355 8.3742 30.2521 8.36858 30.2665 8.36858C30.2816 8.36858 30.3005 8.37491 30.3187 8.39477C30.3371 8.41492 30.3513 8.44595 30.3513 8.48371C30.3513 8.52147 30.3371 8.55249 30.3187 8.57265C30.3005 8.59251 30.2816 8.59884 30.2665 8.59884C30.2522 8.59884 30.2355 8.59322 30.2189 8.5747C30.2017 8.55546 30.1872 8.52405 30.1873 8.48399Z" stroke="#333333" stroke-width="0.5"/>
<path id="Vector_8" d="M30.2665 8.90297C30.0911 8.90297 29.9082 8.73778 29.9082 8.48349C29.9082 8.22937 30.0911 8.064 30.2665 8.064C30.4468 8.064 30.6301 8.23136 30.6301 8.48349C30.6301 8.73561 30.4468 8.90297 30.2665 8.90297ZM30.2665 8.17271C30.1589 8.17271 30.077 8.22886 30.0298 8.2918C29.9856 8.35061 29.9663 8.41973 29.9663 8.48349C29.9663 8.54708 29.9854 8.61641 30.03 8.67553C30.0777 8.73887 30.1597 8.79426 30.2665 8.79426C30.4547 8.79426 30.5722 8.63366 30.5722 8.48349C30.5722 8.33336 30.4548 8.17271 30.2665 8.17271ZM30.4663 8.48349C30.4663 8.51747 30.4565 8.5562 30.4296 8.59206C30.3995 8.63206 30.3427 8.67271 30.2665 8.67271C30.1386 8.67271 30.0722 8.56772 30.0722 8.48349C30.0722 8.39922 30.1386 8.29426 30.2665 8.29426C30.3419 8.29426 30.3989 8.33428 30.4294 8.37473C30.4567 8.41097 30.4663 8.44992 30.4663 8.48349ZM30.2665 8.42271C30.2351 8.42271 30.2163 8.45371 30.2163 8.48349C30.2163 8.51351 30.2351 8.54426 30.2665 8.54426C30.2967 8.54426 30.3222 8.51644 30.3222 8.48349C30.3222 8.45054 30.2967 8.42271 30.2665 8.42271Z" fill="black" stroke="#333333" stroke-width="0.5"/>
</g>
<g id="Group_6">
<path id="Vector_9" d="M36.523 15.9872C36.523 16.1987 36.3749 16.3276 36.2317 16.3276C36.0922 16.3276 35.9403 16.197 35.9403 15.9872C35.9403 15.7774 36.0922 15.6468 36.2317 15.6468C36.3751 15.6468 36.523 15.7757 36.523 15.9872Z" stroke="#333333" stroke-width="0.5"/>
<path id="Vector_10" d="M36.2317 16.632C35.9373 16.632 35.6613 16.3634 35.6613 15.9875C35.6613 15.6115 35.9374 15.3429 36.2317 15.3429C36.526 15.3429 36.8021 15.6115 36.8021 15.9874C36.802 16.3635 36.5259 16.632 36.2317 16.632ZM36.2317 15.4512C35.9291 15.4512 35.7194 15.7123 35.7194 15.9872C35.7194 16.2621 35.9291 16.5233 36.2317 16.5233C36.5368 16.5233 36.744 16.2648 36.744 15.9872C36.744 15.71 36.5369 15.4512 36.2317 15.4512Z" fill="black" stroke="#333333" stroke-width="0.5"/>
</g>
<g id="Group_7">
<path id="Vector_11" d="M11.7531 22.3531C11.7531 22.8627 11.3762 23.2413 10.9595 23.2413C10.5427 23.2413 10.166 22.8627 10.166 22.3531C10.166 21.8434 10.5428 21.465 10.9595 21.465C11.3764 21.465 11.7531 21.8436 11.7531 22.3531Z" stroke="#333333" stroke-width="0.5"/>
<path id="Vector_12" d="M10.9594 23.5456C10.3884 23.5456 9.88702 23.0314 9.88702 22.3531C9.88702 21.6749 10.3883 21.1609 10.9594 21.1609C11.5305 21.1609 12.0318 21.6752 12.0318 22.3531C12.0318 23.0312 11.5305 23.5456 10.9594 23.5456ZM10.9594 21.2694C10.3798 21.2694 9.94494 21.7761 9.94494 22.3531C9.94494 22.9299 10.3797 23.4369 10.9594 23.4369C11.5391 23.4369 11.9739 22.9302 11.9739 22.3531C11.9739 21.7763 11.5389 21.2694 10.9594 21.2694Z" fill="black" stroke="#333333" stroke-width="0.5"/>
</g>
<g id="Group_8">
<path id="Vector_13" d="M23.2646 6.39005C23.2646 6.3938 23.2642 6.39719 23.2634 6.40022C23.2628 6.39728 23.2625 6.3939 23.2625 6.39005C23.2625 6.38622 23.2628 6.38285 23.2634 6.37992C23.2642 6.38293 23.2646 6.38632 23.2646 6.39005ZM23.2541 6.41568C23.2539 6.41584 23.2538 6.4159 23.2538 6.41589C23.2538 6.41588 23.2539 6.4158 23.2541 6.41568Z" stroke="#333333" stroke-width="0.5"/>
<path id="Vector_14" d="M23.5415 6.39006H23.5416L23.5415 6.38654C23.5405 6.31162 23.5098 6.24666 23.4677 6.2004C23.426 6.15477 23.3558 6.10955 23.2636 6.10955C23.2187 6.10955 23.1682 6.11997 23.1203 6.14853C23.0726 6.17693 23.0411 6.21514 23.0216 6.25016C22.9867 6.3126 22.9856 6.37158 22.9856 6.39006C22.9856 6.40902 22.9869 6.46787 23.0218 6.53015C23.0414 6.56506 23.0729 6.60314 23.1204 6.63143C23.1682 6.65991 23.2187 6.67033 23.2636 6.67033C23.3539 6.67033 23.4239 6.6269 23.4664 6.58108C23.5095 6.53456 23.5415 6.46786 23.5415 6.39006ZM23.2636 6.71827C23.1293 6.71827 22.9834 6.59153 22.9834 6.39031C22.9834 6.18877 23.1293 6.0621 23.2636 6.0621C23.3978 6.0621 23.5437 6.18877 23.5437 6.39031C23.5437 6.59154 23.3979 6.71827 23.2636 6.71827ZM23.4856 6.39006C23.4856 6.40123 23.4855 6.44495 23.4581 6.49396C23.4423 6.52227 23.4162 6.55423 23.3762 6.57805C23.336 6.60203 23.2954 6.60955 23.2636 6.60955C23.1858 6.60955 23.1295 6.57166 23.0982 6.53732C23.0663 6.50235 23.0424 6.45264 23.0416 6.39359L23.2356 6.39085C23.2358 6.39871 23.2385 6.42033 23.2636 6.42033C23.2781 6.42033 23.2915 6.40593 23.2915 6.39006C23.2913 6.3742 23.2781 6.35955 23.2636 6.35955C23.2376 6.35955 23.2356 6.38274 23.2356 6.39006H23.0415C23.0415 6.32812 23.0669 6.27657 23.0996 6.24122C23.1318 6.20657 23.1878 6.17033 23.2636 6.17033C23.2955 6.17033 23.3359 6.17786 23.3761 6.20176C23.416 6.22549 23.4421 6.25732 23.4579 6.28555C23.4835 6.33126 23.4854 6.37243 23.4856 6.38733C23.4856 6.38837 23.4856 6.38928 23.4856 6.39006Z" fill="black" stroke="#333333" stroke-width="0.5"/>
</g>
<path id="Vector_15" d="M19.3448 9.62404L19.1974 9.82593C19.2045 9.83113 19.2138 9.84269 19.2174 9.86252C19.221 9.8823 19.2171 9.90127 19.2085 9.91523L19.2084 9.9154C19.2041 9.92237 19.2 9.92608 19.1973 9.92802C19.1945 9.93002 19.1923 9.93076 19.1911 9.93104C19.1898 9.93131 19.189 9.93125 19.1882 9.9311C19.1877 9.93099 19.1857 9.93052 19.1822 9.92798L19.1819 9.92779C18.3628 9.33027 17.4081 9.01208 16.422 9.01208C13.6702 9.01208 11.4681 11.4465 11.4681 14.3925L11.4681 14.3928C11.4681 14.4149 11.46 14.4305 11.4522 14.4391C11.4448 14.4471 11.4401 14.4471 11.4393 14.4471H11.4392H11.4392C11.4383 14.4471 11.4336 14.4471 11.4261 14.439C11.4182 14.4304 11.4102 14.4147 11.4102 14.3927C11.4102 11.3455 13.6786 8.90385 16.422 8.90385C17.4094 8.90385 18.3688 9.22151 19.1975 9.82601L19.3448 9.62404ZM19.3448 9.62404C19.4728 9.71752 19.5073 9.90643 19.4216 10.046M19.3448 9.62404C18.4749 8.98945 17.4642 8.65385 16.422 8.65385C13.5205 8.65385 11.1602 11.2283 11.1602 14.3927C11.1602 14.5609 11.285 14.6971 11.4392 14.6971C11.5934 14.6971 11.7183 14.5609 11.7181 14.3925L19.4216 10.046M19.4216 10.046C19.3358 10.1859 19.1624 10.2232 19.0346 10.1298L19.4216 10.046Z" stroke="#333333" stroke-width="0.5"/>
<path id="Vector_16" d="M28.1089 23.7203L28.109 23.7203C28.1161 23.7255 28.1253 23.737 28.1289 23.7567C28.1325 23.7764 28.1286 23.7955 28.12 23.8095L28.1199 23.8097C28.1117 23.8229 28.1041 23.8251 28.1024 23.8254C28.1012 23.8257 28.1004 23.8256 28.0998 23.8255C28.0993 23.8254 28.0974 23.825 28.0939 23.8225L28.0934 23.8221C27.2789 23.2279 26.3222 22.9127 25.3281 22.9127C22.5763 22.9127 20.3739 25.3471 20.3739 28.2931C20.3739 28.3147 20.366 28.3304 20.358 28.3391C20.3505 28.3473 20.3457 28.3472 20.3449 28.3472H20.3449H20.3448C20.344 28.3472 20.3393 28.3473 20.3318 28.3391C20.3238 28.3304 20.3158 28.3147 20.3158 28.2929C20.3158 25.2457 22.5844 22.804 25.3279 22.804C26.3251 22.804 27.2861 23.12 28.1089 23.7203Z" stroke="#333333" stroke-width="0.5"/>
</g>
</svg>
