<svg xmlns="http://www.w3.org/2000/svg" width="22" height="22" viewBox="0 0 22 22" fill="none">
  <path d="M16.3846 11.6667C16.3846 10.9594 16.0604 10.2811 15.4834 9.78105C14.9064 9.28095 14.1237 9 13.3077 9H4.07692C3.26087 9 2.47824 9.28095 1.90121 9.78105C1.32417 10.2811 1 10.9594 1 11.6667V15C1 16.5913 1.72939 18.1174 3.02772 19.2426C4.32605 20.3679 6.08696 21 7.92308 21H9.46154C11.2977 21 13.0586 20.3679 14.3569 19.2426C15.6552 18.1174 16.3846 16.5913 16.3846 15V11.6667ZM16.3846 11.6667H17.9231C18.7391 11.6667 19.5218 11.9476 20.0988 12.4477C20.6758 12.9478 21 13.6261 21 14.3333C21 15.0406 20.6758 15.7189 20.0988 16.219C19.5218 16.719 18.7391 17 17.9231 17H16.3846M7.15385 6.33333V1M10.2308 6.33333V3.66667" stroke="#333333" stroke-linecap="round" stroke-linejoin="round"/>
</svg>