<svg width="21" height="41" viewBox="0 0 21 41" fill="none" xmlns="http://www.w3.org/2000/svg">
<g id="Group">
<path id="Vector" d="M10.4334 11.0605C10.3348 11.2989 10.4412 11.4767 10.6136 11.5701C10.7498 11.7103 10.9526 11.766 11.1626 11.6113C12.4188 10.6847 13.68 9.2702 13.5169 7.60955C13.3459 5.86873 8.74376 2.21141 12.0195 0.958605C12.5139 0.769674 12.4848 -0.00208725 11.8875 4.24287e-06C9.74817 0.00767305 7.59535 0.702749 7.44 3.09263C7.22933 6.34002 11.9251 7.46175 10.4334 11.0605ZM9.53679 5.44556C7.90249 3.5667 8.4352 1.95694 10.083 1.29742C9.77867 1.8433 9.72335 2.52094 9.95956 3.35266C10.1851 4.14534 10.6944 4.85436 11.191 5.49854C12.3805 7.04066 12.7011 8.44685 11.7144 9.75613C11.7393 8.94811 11.5612 8.12963 11.1796 7.43665C10.7469 6.64955 10.1206 6.11623 9.53679 5.44556Z" fill="#333333"/>
<path id="Vector_2" d="M19.7547 18.1061C19.3341 16.1833 19.3894 13.3863 17.0564 13.1499C14.3311 12.8746 11.4477 13.0579 8.70683 13.0586C7.19808 13.0586 4.84947 12.6807 3.41236 13.2496C1.97738 13.8185 1.79367 16.458 1.63619 17.9436C0.228168 18.2427 -0.556354 19.1128 0.463667 20.8473C0.475016 20.8668 0.49133 20.8752 0.504098 20.8919C0.524669 20.9233 0.549495 20.9491 0.578578 20.9742C0.598439 20.9909 0.618302 21.0063 0.640291 21.0188C0.670793 21.037 0.703421 21.0495 0.740306 21.0607C0.76797 21.0683 0.794217 21.0739 0.82259 21.076C0.847417 21.0788 0.866568 21.0892 0.892813 21.0892C1.09214 21.0865 1.29075 21.0885 1.49007 21.0871C2.29658 26.4295 2.95626 31.7914 3.73724 37.138C3.93372 38.4835 3.7649 40.2104 5.29139 40.7625C6.16883 41.0804 7.35058 40.9047 8.2635 40.9187C9.7304 40.9403 11.198 40.9529 12.6649 40.948C13.7913 40.9445 15.8094 41.2715 16.6833 40.3282C17.6331 39.3041 17.6132 36.6534 17.8416 35.3497C17.8494 35.3058 17.8558 35.2619 17.8629 35.2187C17.8686 35.1922 17.8757 35.1664 17.8764 35.1385C18.6793 30.5205 19.2716 25.8704 20.0271 21.2447C20.0966 21.2426 20.1661 21.2426 20.2356 21.2398C20.4066 21.2343 20.5279 21.1569 20.608 21.0516C20.6513 21.0056 20.6889 20.9505 20.7144 20.8815C21.3273 19.2543 20.9293 18.4212 19.7547 18.1061ZM3.46131 14.66C3.82732 14.112 3.61098 14.2577 4.44444 14.119C5.90638 13.875 7.56125 14.0332 9.03525 14.0353C10.8597 14.0381 12.6841 14.0618 14.5085 14.0883C15.6519 14.105 16.513 13.9203 17.3834 14.6893C18.2743 15.4764 18.4772 16.7787 18.7113 17.9541C16.4634 17.8391 14.2013 17.8133 11.9513 17.8126C8.85933 17.8119 5.73259 17.6961 2.64487 17.8244C2.75765 16.8372 2.94066 15.4387 3.46131 14.66ZM3.98692 18.7942C5.32118 18.7963 6.65473 18.8165 7.98898 18.8151C9.53888 18.8137 11.0881 18.783 12.638 18.7935C14.0297 18.8025 15.42 18.8325 16.8102 18.8785C17.4742 18.9001 18.141 18.8974 18.8042 18.9343C19.881 18.995 20.1604 19.3205 19.8739 20.2722C13.6473 20.4632 7.43074 20.0463 1.20421 20.1125C0.539565 18.5453 3.41165 18.7928 3.98692 18.7942ZM16.962 34.6393C14.8248 34.9719 12.7181 34.799 10.5639 34.7495C8.49332 34.7021 6.43696 34.7544 4.37068 34.6024C4.33237 34.3298 4.29265 34.0565 4.25505 33.7839C3.86066 30.9402 3.4762 28.0957 3.07969 25.2527C8.18121 25.0268 13.331 25.5846 18.4091 25.2548C18.0771 27.4906 17.7551 29.7271 17.4018 31.9594C17.26 32.8532 17.1153 33.747 16.962 34.6393ZM16.4733 37.3123C16.3747 37.8142 16.3761 38.7993 16.0896 39.2476C15.437 40.2689 14.2127 39.9629 13.1089 39.9691C11.2207 39.9803 8.78627 40.3024 6.93917 39.9197C4.52034 39.4191 4.90197 38.3099 4.63029 36.438C4.58986 36.1564 4.55085 35.8747 4.51112 35.5931C8.4387 35.9089 12.8522 36.2128 16.779 35.6418C16.6783 36.2003 16.5818 36.7573 16.4733 37.3123ZM18.5559 24.2711C13.3842 24.6246 8.13723 24.0362 2.94066 24.2809C2.79028 23.2149 2.64274 22.1482 2.48314 21.083C7.9982 21.0788 13.5083 21.3883 19.0241 21.2663C18.8616 22.2674 18.7063 23.2686 18.5559 24.2711Z" fill="#333333"/>
<path id="Vector_3" d="M13.7984 26.753C13.0473 26.1869 11.7527 25.9645 10.8866 26.318C8.99698 27.0709 6.85975 29.032 6.73491 31.1493C6.61078 33.2513 8.85511 34.4615 10.8036 34.1618C13.1636 33.7992 14.5993 31.3933 14.6518 29.2126C14.6731 28.3356 14.556 27.324 13.7984 26.753ZM8.10818 30.0157C8.72885 28.8563 9.90563 27.7555 11.1505 27.2591C11.3314 27.1852 11.5378 27.1497 11.7506 27.1413C11.6499 28.6416 10.5767 29.3827 9.7056 30.4821C9.14381 31.1904 8.82106 31.9601 8.74374 32.8372C7.81593 32.2962 7.45772 31.2323 8.10818 30.0157ZM13.4622 30.4417C13.0579 31.806 11.8698 33.2227 10.2858 33.2199C10.0773 33.2192 9.87938 33.1997 9.68999 33.1676C9.69496 33.1411 9.70702 33.1202 9.70773 33.0916C9.75383 31.5425 10.9271 30.7359 11.8152 29.6163C12.3649 28.9233 12.6401 28.1801 12.7224 27.3261C13.0976 27.4885 13.4154 27.7499 13.5594 28.1132C13.8247 28.7845 13.6566 29.7843 13.4622 30.4417Z" fill="#333333"/>
</g>
</svg>
