<svg width="26" height="37" viewBox="0 0 26 37" fill="none" xmlns="http://www.w3.org/2000/svg">
<g id="Group">
<path id="Vector" d="M11.6335 23.8793C12.1765 23.2161 13.0437 22.2831 13.0035 21.3723C12.9582 20.3363 11.9717 19.2493 11.2379 18.5694C9.54187 16.9954 6.63026 17.8286 5.08544 19.2301C4.35291 19.9522 3.73013 20.6856 3.85647 21.7601C3.9675 22.7056 4.72556 24.6734 5.56911 25.2424C6.2959 25.7331 8.03916 25.6574 8.87251 25.622C10.1563 25.5662 10.8608 24.823 11.6335 23.8793ZM9.67778 18.7474C9.35555 19.1358 9.03969 19.5298 8.71362 19.915C8.3799 20.309 7.96451 20.6378 7.62823 21.0243C7.35705 20.9871 7.06799 21.0268 6.74511 21.0479C6.14595 21.0869 5.54295 21.1056 4.94506 21.1639C5.06119 20.7029 5.30622 20.25 5.71779 19.8437C6.68832 18.9633 8.3263 18.392 9.67778 18.7474ZM7.39341 24.6697C6.00557 24.424 4.99292 23.2862 4.87359 22.0343C5.64824 21.9406 7.2709 21.5938 7.79797 22.1453C8.42074 22.7968 8.67023 23.8285 9.2024 24.5624C8.6696 24.7411 8.07553 24.7901 7.39341 24.6697ZM9.99938 24.1684C9.99491 24.1616 9.99491 24.1554 9.99044 24.1486C9.38617 23.3334 9.08946 22.2372 8.40351 21.479C8.7098 21.1589 9.05755 20.8686 9.3447 20.5292C9.73457 20.0689 10.1072 19.5949 10.4971 19.1339C10.5016 19.129 10.5016 19.1234 10.5054 19.1184C10.5386 19.1408 10.5737 19.1594 10.6062 19.183C11.0682 19.5223 12.0023 20.6173 12.0783 21.2445C12.1478 21.824 11.5914 22.481 11.2781 22.9041C10.8914 23.4265 10.4709 23.8545 9.99938 24.1684Z" fill="#333333"/>
<path id="Vector_2" d="M16.6348 27.8244C14.9579 27.0421 12.0182 26.9025 10.7957 28.5552C10.1907 29.3729 9.51373 30.9059 9.6892 31.9351C9.86276 32.9532 10.9565 33.5971 11.7783 34.1437C12.7871 34.8137 13.7245 35.3473 14.9515 35.0185C15.7785 34.797 17.4248 34.4036 17.992 33.7107C18.648 32.9097 18.7635 30.7936 18.5587 29.8289C18.3404 28.8027 17.5352 28.2847 16.6348 27.8244ZM16.1837 28.5744C16.647 28.8114 17.0177 29.188 17.2825 29.6322C16.7459 29.7432 16.2143 29.8835 15.6822 30.0094C15.3472 30.0888 15.0179 30.1347 14.7391 30.2638C14.2994 29.9995 13.8119 29.804 13.3755 29.5267C12.9339 29.2463 12.5 28.9535 12.0604 28.6687C13.2517 27.9478 15.0415 28.0415 16.1837 28.5744ZM10.5628 31.7837C10.4313 31.1416 10.9584 29.8196 11.3776 29.2593C11.3884 29.2674 11.3929 29.2779 11.4044 29.2854C11.9149 29.6105 12.4139 29.9523 12.9243 30.2768C13.3123 30.5231 13.7404 30.7042 14.1393 30.9263C13.7321 31.8526 13.7826 32.9643 13.4514 33.9148C13.4463 33.929 13.4495 33.9408 13.4463 33.9545C13.0239 33.8335 12.6123 33.6499 12.2282 33.393C11.7579 33.0785 10.6993 32.4513 10.5628 31.7837ZM16.5895 33.4898C15.8768 33.9545 15.0964 34.1468 14.3249 34.1071C14.6159 33.2354 14.5464 32.1988 14.9292 31.3681C15.1385 30.9139 15.6464 30.9121 16.1039 30.8023C16.6099 30.6807 17.1147 30.5467 17.6251 30.4455C17.9212 31.5492 17.6456 32.8018 16.5895 33.4898Z" fill="#333333"/>
<path id="Vector_3" d="M15.5935 20.7537C16.4313 20.8635 17.1925 20.2735 17.3508 19.4819C17.5167 18.6524 17.0292 18.1027 16.2749 17.8111C16.1907 17.7789 16.118 17.7789 16.0503 17.7919C15.2125 17.7404 14.3358 18.1195 14.1418 18.9849C13.9517 19.8293 14.7678 20.6457 15.5935 20.7537ZM15.0351 19.0904C15.173 18.6791 15.6668 18.6294 16.0516 18.6561C16.3598 18.779 16.5474 18.9688 16.4772 19.3137C16.4064 19.6643 16.0899 19.9416 15.7128 19.8919C15.3548 19.8448 14.9082 19.4713 15.0351 19.0904Z" fill="#333333"/>
<path id="Vector_4" d="M18.6984 22.5379C18.6142 22.5057 18.5408 22.5057 18.4738 22.5187C17.636 22.4672 16.7593 22.8463 16.5653 23.7117C16.3758 24.5561 17.1919 25.3725 18.0176 25.4805C18.8554 25.5903 19.6166 25.0003 19.7749 24.2087C19.9395 23.3786 19.452 22.8289 18.6984 22.5379ZM18.9013 24.0405C18.8305 24.3911 18.514 24.6684 18.1369 24.6188C17.7783 24.5716 17.3316 24.1975 17.4592 23.8166C17.5971 23.4046 18.091 23.3556 18.4757 23.3823C18.7839 23.5058 18.9715 23.6956 18.9013 24.0405Z" fill="#333333"/>
<path id="Vector_5" d="M7.16076 28.8555C7.07654 28.8232 7.00316 28.8232 6.93616 28.8362C6.09834 28.7847 5.2216 29.1638 5.02762 30.0292C4.83811 30.8736 5.65423 31.69 6.47928 31.798C7.3171 31.9078 8.07834 31.3178 8.23658 30.5262C8.40249 29.6967 7.91499 29.147 7.16076 28.8555ZM7.36368 30.3587C7.29285 30.7092 6.97636 30.9865 6.59924 30.9369C6.24064 30.8897 5.79397 30.5156 5.92159 30.1347C6.05942 29.7234 6.5533 29.6738 6.93807 29.7004C7.24691 29.8239 7.43387 30.0131 7.36368 30.3587Z" fill="#333333"/>
<path id="Vector_6" d="M23.7553 7.15655C23.9148 7.31351 24.2313 7.33523 24.387 7.15655C24.9179 6.54857 25.4571 5.94244 25.9369 5.29475C26.0582 5.13035 25.988 4.90638 25.8667 4.76866C24.4253 3.12089 20.1328 -2.84917 18.2537 1.64125C17.6156 3.16618 17.3406 4.93802 16.913 6.52685C16.7203 7.24155 16.5289 7.95686 16.3394 8.67218C11.0432 8.66101 5.74708 8.53259 0.449008 8.52701C0.372437 8.52701 0.307991 8.54376 0.251839 8.57043C0.0974208 8.62131 -0.0180754 8.75097 0.00234355 8.9619C0.620016 15.4463 1.38828 21.9195 2.45198 28.3505C2.73018 30.0324 3.02817 31.7118 3.3536 33.3856C3.52397 34.2641 3.5061 35.7667 4.15568 36.4584C4.6502 36.9851 5.51354 36.8834 6.17077 36.9026C7.94084 36.9553 9.70644 37.0062 11.4778 36.9994C13.0385 36.9938 14.5987 36.9665 16.1588 36.9535C17.0381 36.946 18.4866 37.1427 19.3072 36.7283C21.0485 35.8486 20.8379 32.5152 21.1015 30.9009C22.2845 23.6417 23.4681 16.3831 24.6512 9.12382C24.6946 8.85829 24.5376 8.56423 24.2205 8.57415C22.7439 8.62068 21.2674 8.64426 19.7915 8.65915C20.1641 7.2583 20.5674 5.86551 21.0198 4.48762C21.9361 5.37168 22.8479 6.26195 23.7553 7.15655ZM15.6024 15.3234C16.042 13.3878 16.5289 11.4621 17.0343 9.54135C17.569 9.54135 18.1037 9.54135 18.6391 9.53887C18.1401 11.4875 17.6819 13.4467 17.2008 15.3973C16.6686 15.3923 16.1358 15.3669 15.6024 15.3234ZM14.7072 15.2347C13.535 15.1026 12.3583 14.9059 11.1804 14.6981C7.81386 14.1037 4.81291 14.0163 1.51717 14.9258C1.31107 13.0844 1.11645 11.2419 0.939063 9.39742C5.99721 9.41045 11.0547 9.52584 16.1116 9.54011C15.6164 11.4317 15.1379 13.3282 14.7072 15.2347ZM20.9228 26.4812C20.695 27.8771 20.4678 29.273 20.24 30.6689C20.0295 31.963 20.0378 33.6375 19.5573 34.8565C18.96 36.3728 17.5562 36.0719 16.1588 36.0837C14.7301 36.0955 13.3014 36.119 11.8734 36.1271C10.5283 36.1346 9.1832 36.1302 7.8381 36.0936C7.21022 36.0769 6.35837 36.1966 5.74963 36.013C4.50854 35.6382 4.63361 35.2468 4.44091 34.292C3.89598 31.5889 3.42187 28.8728 2.99754 26.1499C2.46027 22.7086 2.01297 19.2561 1.61672 15.7974C6.03486 14.5479 9.79386 15.522 14.1967 16.1095C17.0789 16.4941 20.0282 16.3421 22.7433 15.3154C22.1365 19.0371 21.5296 22.7595 20.9228 26.4812ZM23.6985 9.4545C23.4337 11.0793 23.1689 12.7047 22.9041 14.3296C21.3293 15.0126 19.7328 15.3104 18.1229 15.3793C18.6014 13.4306 19.0615 11.4739 19.563 9.52894C20.9413 9.51653 22.3196 9.4942 23.6985 9.4545ZM18.8669 8.66721C18.3322 8.67032 17.7974 8.67218 17.2627 8.67218C17.4082 8.12375 17.5543 7.57532 17.7017 7.02689C18.1222 5.46164 18.3028 3.20402 19.1604 1.79138C20.2822 -0.0561495 21.617 1.51965 22.5946 2.51352C23.0974 3.02473 24.9766 4.57199 24.9243 5.18804C24.8975 5.5032 24.1898 5.92693 24.0214 6.23093C24.0003 6.1937 23.985 6.1633 23.9557 6.11739C23.3131 5.10677 22.005 4.20224 21.1321 3.36532C20.8832 3.12709 20.4908 3.24993 20.3855 3.55703C19.81 5.2414 19.3199 6.94934 18.8669 8.66721Z" fill="#333333"/>
<path id="Vector_7" d="M1.97226 12.2115C2.09668 12.7388 2.18729 13.273 2.27918 13.8059C2.37361 14.3562 3.23504 14.1229 3.1406 13.5751C3.03723 12.9752 2.93514 12.374 2.78582 11.7834C2.76349 11.6959 2.65757 11.4757 2.6799 11.3913C2.66203 11.3727 2.64417 11.3541 2.6263 11.3361C2.70925 11.3299 2.79284 11.3237 2.87579 11.3175C3.22355 11.3007 3.56876 11.3249 3.91333 11.3665C4.48251 11.4347 4.4774 10.5656 3.91333 10.4979C3.28864 10.4235 1.94035 10.2262 1.76998 11.0923C1.69979 11.4521 1.89058 11.8647 1.97226 12.2115Z" fill="#333333"/>
<path id="Vector_8" d="M5.29892 11.4788C5.87384 11.4788 5.87448 10.6103 5.29892 10.6103C4.724 10.6103 4.72336 11.4788 5.29892 11.4788Z" fill="#333333"/>
</g>
</svg>
