<svg width="150" height="150" viewBox="0 0 150 150" fill="none" xmlns="http://www.w3.org/2000/svg">
<mask id="mask0_38_3654" style="mask-type:luminance" maskUnits="userSpaceOnUse" x="0" y="0" width="150" height="150">
<path d="M150 75.0005C150 116.421 116.421 150 75 150C33.5786 150 0 116.421 0 75.0005C0 33.5788 33.5786 0 75 0C116.421 0 150 33.5788 150 75.0005Z" fill="white"/>
</mask>
<g mask="url(#mask0_38_3654)">
<path d="M150 75.0005C150 116.421 116.421 150 75 150C33.5786 150 0 116.421 0 75.0005C0 33.5788 33.5786 0 75 0C116.421 0 150 33.5788 150 75.0005Z" fill="#D8602B"/>
</g>
<mask id="mask1_38_3654" style="mask-type:luminance" maskUnits="userSpaceOnUse" x="0" y="0" width="150" height="150">
<path d="M150 75.0005C150 116.421 116.421 150 75 150C33.5786 150 0 116.421 0 75.0005C0 33.5788 33.5786 0 75 0C116.421 0 150 33.5788 150 75.0005Z" fill="white"/>
</mask>
<g mask="url(#mask1_38_3654)">
<path d="M65.281 253.549H63.0054V106.776C63.0054 87.0255 46.9363 70.9563 27.1836 70.9563H24.8422C5.08948 70.9563 -10.9786 87.0255 -10.9786 106.776H-13.2531C-13.2531 85.7701 3.83722 68.6818 24.8411 68.6818H27.1825C48.1896 68.6818 65.2789 85.7712 65.2789 106.776V253.549H65.281Z" fill="#D4BDA1"/>
<path d="M58.9978 253.549H53.1881V107.003C53.1881 92.5279 41.4109 80.7538 26.9369 80.7538H25.0899C10.6159 80.7538 -1.15816 92.4276 -1.15816 106.776H-6.96785C-6.96785 89.2238 7.4121 74.943 25.0899 74.943H26.9369C44.6147 74.943 58.9978 89.3262 58.9978 107.003V253.549Z" fill="#D4BDA1"/>
<path d="M49.9812 253.549H43.0102V109.441C43.0102 100.069 35.3849 92.4443 26.0129 92.4443C17.5524 92.4443 9.01556 96.8742 9.01556 106.776H2.04457C2.04457 94.2328 11.9026 85.4733 26.0129 85.4733C39.2294 85.4733 49.9812 96.2251 49.9812 109.441V253.549Z" fill="#D4BDA1"/>
</g>
<path d="M74.3916 26C58.4122 26 45.2277 36.7266 43.2279 50.6097C43.5391 50.5427 43.8617 50.5046 44.1978 50.5046H52.6135C54.5761 41.1999 63.6608 34.1635 74.5778 34.1635C86.9258 34.1635 96.938 43.1678 96.938 54.2748C96.938 65.3818 86.9258 74.386 74.5778 74.386C63.6597 74.386 54.5761 67.3497 52.6135 58.0441H44.1978C43.8628 58.0441 43.5391 58.0059 43.2279 57.9399C45.2277 71.823 58.4122 82.5486 74.3916 82.5486C91.7535 82.5486 105.827 69.8913 105.827 54.2757C105.828 38.661 91.7535 26 74.3916 26Z" fill="#212739"/>
<path d="M74.5778 69.5854C83.9778 69.5854 91.5984 62.7303 91.5984 54.2748C91.5984 45.8192 83.9778 38.9642 74.5778 38.9642C65.1746 38.9642 57.554 45.8192 57.554 54.2748C57.554 62.7303 65.1746 69.5854 74.5778 69.5854Z" fill="#D4BDA1"/>
<path d="M52.8369 112.983H21V114.209H52.8369V112.983Z" fill="#212739"/>
<path d="M128.057 112.983H96.2194V114.209H128.057V112.983Z" fill="#212739"/>
<path d="M32.7483 96.0378C32.5922 94.4754 31.8508 93.7733 30.2501 93.7733C27.9464 93.7733 27.1668 95.5654 27.1668 97.67C27.1668 99.7764 27.9474 101.568 30.2501 101.568C32.0441 101.568 32.9241 100.811 32.982 99.1803H39.033C38.9947 100.32 38.8582 101.426 37.7642 102.375C36.1843 103.745 33.4121 104.34 30.3877 104.34C23.3224 104.34 21 101.724 21 97.67C21 94.667 22.5024 91 30.3877 91C33.9188 91 36.3787 91.5971 37.6081 92.6489C38.486 93.405 38.7776 94.1769 38.7972 96.0369H32.7483V96.0378Z" fill="#212739"/>
<path d="M58.7544 102.146C57.2324 103.463 54.7921 104.34 51.1628 104.34C44.2743 104.34 41.7358 101.461 41.7358 97.67C41.7358 95.212 42.8298 93.4403 44.4491 92.4043C45.7953 91.5431 47.5314 91 51.1628 91C58.0513 91 60.5877 93.8793 60.5877 97.67C60.5888 99.6192 59.926 101.146 58.7544 102.146ZM51.1638 93.8793C49.2117 93.8793 47.7868 95.0725 47.7868 97.67C47.7868 100.268 49.2117 101.461 51.1638 101.461C53.115 101.461 54.5399 100.268 54.5399 97.67C54.5388 95.0725 53.114 93.8793 51.1638 93.8793Z" fill="#212739"/>
<path d="M64.2512 91.3348H77.2103V94.0021H70.1833V96.6349H76.8577V99.3031H70.1833V104.007H64.2512V91.3348Z" fill="#212739"/>
<path d="M80.6732 91.3348H93.6313V94.0021H86.6042V96.6349H93.2797V99.3031H86.6042V104.007H80.6732V91.3348Z" fill="#212739"/>
<path d="M97.0941 91.3348H110.599V94.0021H102.833V96.3354H110.111V99.0045H102.833V101.34H110.678V104.007H97.0941V91.3348Z" fill="#212739"/>
<path d="M114.473 91.3348H127.977V94.0021H120.21V96.3354H127.489V99.0045H120.21V101.34H128.056V104.007H114.472L114.473 91.3348Z" fill="#212739"/>
<path d="M57.8342 114.48C57.859 115.049 57.9366 116.109 60.0397 116.109C61.9423 116.109 62.1822 115.049 62.1822 114.64C62.1822 113.716 61.3581 113.534 60.078 113.248C58.6841 112.941 58.0627 112.803 57.5943 112.519C56.8467 112.064 56.643 111.448 56.643 110.9C56.643 109.224 58.406 108.495 60.1286 108.495C60.7366 108.495 61.966 108.586 62.7012 109.305C63.2079 109.805 63.2348 110.364 63.2585 110.708H61.9423C61.8771 109.68 60.9145 109.453 60.0159 109.453C58.7472 109.453 57.9872 109.965 57.9872 110.788C57.9872 111.516 58.5197 111.768 59.6354 112.006C61.8151 112.507 62.056 112.553 62.5895 112.873C63.4374 113.374 63.5015 114.172 63.5015 114.515C63.5015 115.973 62.2339 117.08 59.8898 117.08C59.1929 117.08 57.7732 116.977 57.0504 116.144C56.5313 115.542 56.5179 114.879 56.5179 114.481L57.8342 114.48Z" fill="#212739"/>
<path d="M67.2819 108.654V112.187H71.6298V108.654H72.8965V116.885H71.6298V113.168H67.2819V116.885H66.0142V108.654H67.2819Z" fill="#212739"/>
<path d="M76.6158 109.542C77.567 108.62 78.8213 108.438 79.6692 108.438C82.2056 108.438 83.801 109.896 83.801 112.688C83.801 114.876 82.826 117.078 79.5689 117.078C76.4493 117.078 75.436 115.082 75.436 112.826C75.436 111.891 75.6138 110.512 76.6158 109.542ZM77.5784 115.357C78.0975 115.939 78.8833 116.109 79.6061 116.109C80.3537 116.109 81.1023 115.927 81.6338 115.357C82.3824 114.536 82.4579 113.237 82.4579 112.678C82.4579 110.808 81.7734 109.395 79.6826 109.395C77.3623 109.395 76.7667 111.072 76.7667 112.757C76.7667 113.658 76.9446 114.65 77.5784 115.357Z" fill="#212739"/>
<path d="M86.3033 108.654H89.3712C90.4858 108.654 91.2469 108.71 91.8683 109.315C92.3253 109.737 92.5394 110.295 92.5394 110.911C92.5394 111.539 92.3109 112.073 91.8166 112.518C91.3358 112.952 90.7019 113.226 89.0548 113.226H87.571V116.885H86.3023V108.654H86.3033ZM87.572 112.267H89.0806C89.9172 112.267 91.1972 112.211 91.1972 110.867C91.1972 109.578 90.0061 109.578 89.3464 109.578H87.572V112.267Z" fill="#212739"/>
</svg>
