<svg width="21" height="41" viewBox="0 0 21 41" fill="none" xmlns="http://www.w3.org/2000/svg">
<g id="Group">
<path id="Vector" d="M20.9921 15.9689C20.994 15.943 20.9958 15.9186 20.9946 15.8921C20.9958 15.8572 21.0033 15.8251 20.9983 15.7874C20.7279 13.874 20.3104 13.273 19.3459 13.051C19.1064 8.13525 15.9338 4.15772 11.7084 3.56438C11.6374 2.19549 11.4596 0.617882 10.5426 0.189275C9.73559 -0.186978 8.6266 0.0992222 7.78992 0.185781C6.54633 0.31562 5.34288 0.566224 4.14189 0.957835C3.89675 1.03741 3.80659 1.29429 3.83994 1.55886C3.92638 2.23667 4.06594 2.85935 4.27464 3.50226C4.36171 3.76891 4.55868 3.89177 4.80628 3.8436C6.01345 3.60906 7.22 3.37451 8.42716 3.14066C8.45371 3.35426 8.48026 3.56717 8.50681 3.78077C4.79271 4.87253 2.03569 8.79213 1.67508 13.1466C0.391972 13.4433 0.117815 14.1769 0.00111203 16.1839C-0.00815008 16.343 0.0412392 16.461 0.119658 16.5392C0.188816 16.6271 0.293166 16.6816 0.433333 16.6725C0.834073 16.6446 1.23298 16.6257 1.6331 16.602C1.63248 16.6313 1.62506 16.6578 1.62939 16.6892C2.34257 22.1934 3.04464 27.699 3.7535 33.2039C4.00605 35.1654 4.25551 37.127 4.51731 39.0864C4.61117 39.7887 4.54634 40.352 5.08725 40.7262C5.8066 41.2239 7.59419 40.8902 8.39752 40.8944C10.2271 40.9049 12.0567 40.8762 13.8856 40.8302C14.4636 40.8155 15.9011 41.0898 16.4074 40.6968C17.1576 40.114 17.1002 37.6533 17.2225 36.7912C18.1851 30.0242 18.9477 23.2286 19.3898 16.3912C19.7868 16.3961 20.1832 16.4002 20.5815 16.4044C20.8242 16.4072 20.9545 16.2215 20.9853 16.0121C20.989 15.9996 20.9897 15.9842 20.9921 15.9689ZM18.4722 12.9386C18.1907 12.9197 17.8782 12.9072 17.5287 12.8918C17.5096 11.6863 17.144 10.9268 16.0178 10.5575C15.898 10.5184 15.7677 10.4933 15.6423 10.4612C16.3209 8.65322 14.5568 7.94887 12.8532 7.67454C12.952 6.99603 12.8421 6.30496 12.4784 5.72417C12.3315 5.48962 12.0684 5.16223 11.7813 4.9926C11.7702 4.85788 11.7603 4.71268 11.7529 4.55422C15.4336 5.15874 18.211 8.62389 18.4722 12.9386ZM4.4605 12.8751C4.10298 11.3142 7.12429 11.2835 7.79054 11.2591C8.74454 11.2242 9.69976 11.2493 10.6531 11.2786C11.8572 11.3156 16.2771 10.7976 16.634 12.8569C14.0511 12.7529 11.4676 12.6922 8.88286 12.7362C7.40648 12.7613 5.93318 12.792 4.4605 12.8751ZM14.7439 10.2902C13.0218 10.0675 11.0255 10.2881 9.425 10.2699C8.70502 10.2622 7.45032 10.1959 6.28021 10.339C5.10639 7.80019 15.7627 7.77227 14.7439 10.2902ZM10.9323 5.16572C10.9347 5.18597 10.944 5.20062 10.9483 5.21947C10.9347 5.23971 10.9242 5.25857 10.9076 5.27881C10.6667 5.55943 10.5012 5.71788 10.1561 5.83167C9.98689 5.88751 9.81463 5.92241 9.64421 5.9622C9.58555 5.49171 9.52749 5.02052 9.46883 4.55003C9.73619 4.50396 10.0073 4.47185 10.2827 4.45999C10.4753 4.45161 10.6643 4.46069 10.8532 4.46767C10.8785 4.70012 10.9057 4.93327 10.9323 5.16572ZM10.3852 6.77405C10.7421 6.66585 11.0996 6.5004 11.3663 6.20303C11.4225 6.14021 11.467 6.06482 11.5108 5.98873C11.5787 6.05016 11.6485 6.10879 11.7059 6.18349C12.0085 6.58836 12.0665 7.07909 11.985 7.56634C11.3991 7.51329 10.8792 7.50073 10.5488 7.49793C10.1962 7.49444 9.6442 7.49933 9.02549 7.5475C8.79641 7.0791 10.1752 6.83757 10.3852 6.77405ZM9.20703 2.44679C9.17245 2.16826 8.87977 2.06565 8.67539 2.10544C7.44785 2.34417 6.2203 2.58221 4.99276 2.82094C4.89705 2.48169 4.81925 2.13685 4.75874 1.78852C6.26723 1.3313 7.84118 1.04649 9.40154 1.02276C10.3951 1.0081 10.4932 1.362 10.6136 2.37419C10.6581 2.74555 10.6989 3.11762 10.7408 3.48969C10.5877 3.48759 10.437 3.47572 10.2814 3.4827C9.96528 3.49596 9.65408 3.53296 9.34781 3.58532C9.30089 3.20557 9.25396 2.82653 9.20703 2.44679ZM8.62783 4.75596C8.69266 5.27741 8.7575 5.79816 8.82233 6.31961C8.41171 6.62885 8.08323 7.12029 8.153 7.64522C6.39011 7.9063 4.58894 8.61692 5.37128 10.5052C4.14436 10.8179 3.24099 11.4964 3.5664 12.9351C3.22926 12.9595 2.8915 12.9833 2.55435 13.0161C2.92607 9.1991 5.37621 5.76186 8.62783 4.75596ZM1.67446 14.1057C1.948 13.964 2.44013 14.0059 2.74208 13.9773C3.51083 13.9033 4.28575 13.853 5.05636 13.8084C6.50434 13.7246 7.95602 13.7281 9.40523 13.7037C11.1397 13.6743 12.8538 13.7239 14.5865 13.7986C15.7374 13.8482 16.8921 13.8174 18.0418 13.8998C18.4136 13.9263 19.467 13.8398 19.7201 14.0897C19.8998 14.267 20.0128 14.9043 20.0845 15.423C13.6565 15.3518 7.3225 15.2505 0.89706 15.6687C0.94584 14.9699 1.05575 14.4254 1.67446 14.1057ZM16.0474 39.7649C16.0703 39.7468 16.0721 39.7524 16.0474 39.7649V39.7649ZM16.2184 37.7126C16.1338 38.2857 16.1363 39.1709 15.9468 39.7922C15.8918 39.8019 15.8214 39.8075 15.7189 39.797C15.3953 39.7621 15.0378 39.8222 14.713 39.8319C12.8088 39.8899 10.9032 39.9206 8.99832 39.9199C8.11409 39.9192 7.22679 39.9234 6.34319 39.878C6.10978 39.8661 5.76276 39.9136 5.53986 39.8229C5.49354 39.804 5.46391 39.7963 5.43612 39.7894C5.27064 39.3251 5.29594 38.4219 5.24284 38.0135C5.10576 36.9692 4.97054 35.9249 4.83593 34.8806C4.04679 28.7719 3.2694 22.6618 2.47841 16.5531C7.84488 16.2725 13.1576 16.3221 18.5266 16.3828C18.0635 23.5323 17.2595 30.6427 16.2184 37.7126Z" fill="#333333"/>
<path id="Vector_2" d="M5.50841 25.6139C5.56522 28.5632 8.06475 31.3694 10.7143 31.16C13.204 30.9638 15.7004 28.3642 15.4818 25.4387C15.2546 22.3959 12.6927 20.2312 10.1049 20.2717C7.5825 20.6109 5.44913 22.5306 5.50841 25.6139ZM14.5069 24.7706C15.1126 27.2173 13.2886 29.5174 11.2577 30.0682C9.06196 30.6637 6.7483 28.5625 6.43709 26.1221C6.09377 23.4304 7.86037 21.5519 10.1049 21.2497C12.0209 21.2189 13.9697 22.5997 14.5069 24.7706Z" fill="#333333"/>
</g>
</svg>
