<svg width="41" height="41" viewBox="0 0 41 41" fill="none" xmlns="http://www.w3.org/2000/svg">
<g id="Group">
<path id="Vector" d="M14.2296 12.8384C14.1162 13.0966 14.2385 13.2892 14.4366 13.3904C14.5932 13.5422 14.8263 13.6026 15.0676 13.435C16.3418 12.5484 17.6152 11.2011 17.4521 9.61289C17.2891 8.02018 12.7956 4.54854 15.904 3.42858C16.4722 3.22393 16.4388 2.38792 15.7524 2.39019C13.5945 2.39698 11.3746 3.07893 11.2418 5.36718C11.0649 8.41213 15.6978 9.50038 14.2296 12.8384ZM13.4616 7.52931C11.9274 5.8641 12.3488 4.4481 13.8138 3.81071C13.5766 4.3099 13.5391 4.90877 13.7575 5.63074C13.9858 6.3882 14.5018 7.06335 15.0048 7.67884C16.1119 9.03064 16.4576 10.2631 15.6554 11.4171C15.6423 10.7155 15.463 10.0154 15.1116 9.41579C14.6763 8.67041 14.047 8.16443 13.4616 7.52931Z" fill="#333333"/>
<path id="Vector_2" d="M21.5381 12.5801C21.4248 12.8384 21.547 13.0309 21.7451 13.1321C21.9017 13.2839 22.1348 13.3443 22.3761 13.1767C23.8859 12.127 25.4039 10.5237 25.2066 8.64173C24.9971 6.64196 19.3973 2.48838 23.4188 1.0384C23.987 0.833743 23.9536 -0.002261 23.2672 4.59605e-06C20.6984 0.00831177 18.1084 0.789185 17.9217 3.49581C17.6658 7.19628 23.3471 8.46878 21.5381 12.5801ZM20.4057 6.19564C18.3897 4.01161 19.0851 2.13872 21.1557 1.39938C20.7555 2.02695 20.6715 2.81161 20.9658 3.78581C21.2373 4.6845 21.8495 5.48802 22.447 6.2183C23.9153 8.0134 24.2968 9.65068 23.0291 11.1716C23.0756 10.2292 22.8596 9.26929 22.3867 8.45897C21.8642 7.56406 21.1093 6.95764 20.4057 6.19564Z" fill="#333333"/>
<path id="Vector_3" d="M39.1558 18.4465C37.8466 17.5818 36.4354 17.4798 35.158 18.0802C35.149 16.5177 34.5971 15.3237 33.1069 14.9952C33.0791 14.9892 33.0563 14.9952 33.0302 14.9929C33.0041 14.9892 32.9837 14.9771 32.9552 14.9763C23.7212 14.6924 14.1285 14.2664 4.91319 15.005C1.81045 15.2535 2.10719 17.0086 2.33382 19.5876C2.57268 22.304 3.15067 25.0295 4.39633 27.5126C5.18466 29.0842 6.22488 30.4269 7.45994 31.5438C4.75747 31.7923 -0.064563 32.6849 0.000654819 35.1582C0.0495682 37.0304 3.66426 37.6851 5.11617 37.8935C5.69661 37.9774 6.28276 38.0416 6.87054 38.0982C8.5124 41.5638 14.6877 40.9211 17.9755 40.9649C20.885 41.0035 24.1076 41.1137 26.9707 40.5549C28.7226 40.2128 29.5566 39.0883 30.5788 37.8218C32.7579 37.5968 36.221 37.1769 37.0591 35.5781C38.3227 33.1698 31.5066 32.1246 28.5913 31.8338C28.8669 31.5907 29.1343 31.3362 29.3943 31.0711C29.4555 31.09 29.5207 31.1051 29.5981 31.1021C34.1169 30.9299 40.4121 28.1968 40.9493 23.4866C41.1498 21.7278 40.796 19.5294 39.1558 18.4465ZM34.4031 22.3546C34.8278 22.1968 35.4922 21.9528 35.9585 22.1069C36.5699 22.3085 36.7982 22.9029 36.6922 23.4421C36.5471 24.1807 35.8281 24.9162 35.1922 25.3384C34.5001 25.7975 33.4745 26.3141 32.5541 26.4961C33.1509 25.3127 33.8006 23.8537 34.3028 22.3712C34.3362 22.3644 34.3664 22.3682 34.4031 22.3546ZM24.2323 39.7528C22.4975 39.8707 20.757 39.919 19.0182 39.916C16.4714 39.9122 10.0858 40.4793 8.22788 38.21C11.0958 38.401 14.0151 38.3618 16.8546 38.4109C20.8818 38.4811 24.9171 38.4403 28.9199 37.9985C27.6603 39.1955 26.3038 39.6124 24.2323 39.7528ZM27.5193 32.8058C29.4196 32.8926 31.2914 33.2529 33.1052 33.7777C33.6987 33.9492 35.1335 34.2052 35.5093 34.6432C36.3384 35.6076 33.0726 36.2888 32.378 36.4345C27.5169 37.4563 22.3394 37.4382 17.3828 37.3619C15.0399 37.3256 12.6961 37.266 10.354 37.1822C8.07054 37.1006 4.36535 37.3536 2.36154 36.066C-0.331144 34.3358 3.66753 33.3979 5.13901 33.0482C6.2632 32.7816 7.43142 32.5641 8.59311 32.5248C8.61594 32.5241 8.63142 32.5143 8.65343 32.5113C11.0102 34.2089 13.9214 35.2035 17.1318 35.4535C21.0522 35.7594 24.5535 34.7942 27.3913 32.7756C27.4337 32.7869 27.4704 32.8035 27.5193 32.8058ZM27.6563 31.2652C22.6769 35.6476 13.8969 35.5192 8.77979 31.3331C6.5208 29.4859 5.139 26.95 4.34334 24.2909C3.88356 22.7541 3.61536 21.175 3.47514 19.5868C3.42786 19.0551 3.21426 17.9797 3.36182 17.4624C3.87622 15.662 5.83521 16.0351 7.20641 16.0042C15.7491 15.8078 24.3024 15.77 32.8435 16.0298C35.2175 16.6362 32.9079 22.7571 32.4245 24.0387C31.4185 26.7068 29.8843 29.3047 27.6563 31.2652ZM37.8172 26.7627C35.8313 28.6167 33.1411 29.7223 30.3571 29.9844C30.6922 29.5735 31.0158 29.1484 31.3166 28.696C31.4903 28.4355 31.7128 28.0654 31.9606 27.6191C31.9745 27.6198 31.9835 27.6251 31.9973 27.6251C34.0704 27.5655 36.6343 26.086 37.5351 24.3634C37.9623 23.5456 37.9884 22.5525 37.3794 21.7988C36.7142 20.9756 35.6528 20.9197 34.6753 21.1614C34.8425 20.5542 34.9745 19.9569 35.0585 19.3844C37.2376 17.6792 39.5251 19.7665 39.7713 21.8584C40.0085 23.8816 39.3237 25.3558 37.8172 26.7627Z" fill="#333333"/>
<path id="Vector_4" d="M5.89545 18.8248C5.83675 18.1512 4.69544 18.1452 4.75414 18.8248C4.98893 21.5322 5.87588 24.0568 7.43785 26.3579C7.82834 26.9326 8.81557 26.4025 8.42345 25.824C6.96991 23.683 6.11393 21.3487 5.89545 18.8248Z" fill="#333333"/>
<path id="Vector_5" d="M9.07317 27.5844C8.33865 27.5844 8.33783 28.6416 9.07317 28.6416C9.80768 28.6416 9.80931 27.5844 9.07317 27.5844Z" fill="#333333"/>
</g>
</svg>
